<?xml version="1.0" encoding="utf-8"?>
<!-- Generator: Adobe Illustrator 21.0.0, SVG Export Plug-In . SVG Version: 6.00 Build 0)  -->
<svg version="1.1" id="Layer_1" xmlns="http://www.w3.org/2000/svg" xmlns:xlink="http://www.w3.org/1999/xlink" x="0px" y="0px"
	 viewBox="0 0 150 150" style="enable-background:new 0 0 150 150;" xml:space="preserve">
<style type="text/css">
	.st0{fill:none;stroke:#231F20;stroke-miterlimit:10;}
</style>
<g>
	<path class="st0" d="M45.7,124.7l26.9-43.2h8l28.2,43.2c0,0,7.3-2,19.6-43.2c0,0,5-21.6-5-41.2c0,0-4.3-12-48.5-12
		S29.4,42.9,29.4,42.9l-7.3,19.9C22.1,62.9,19.5,79.8,45.7,124.7z"/>
	<path class="st0" d="M29.4,42.9c0,0-1.7,8.1,43.2,38.5h8c0,0,47.5-28.2,42.9-41.2"/>
	<path class="st0" d="M37.8,54.5c0,0,6.1-5.9,38.1-5.6s40.7,5.6,40.7,5.6"/>
	<line class="st0" x1="63" y1="97" x2="90.7" y2="97"/>
	<circle class="st0" cx="46.6" cy="110" r="3.9"/>
	<circle class="st0" cx="108.9" cy="110" r="3.9"/>
	<circle class="st0" cx="76.6" cy="89.5" r="4.5"/>
</g>
</svg>
