<?xml version="1.0" encoding="utf-8"?>
<!-- Generator: Adobe Illustrator 21.0.0, SVG Export Plug-In . SVG Version: 6.00 Build 0)  -->
<svg version="1.1" id="Layer_1" xmlns="http://www.w3.org/2000/svg" xmlns:xlink="http://www.w3.org/1999/xlink" x="0px" y="0px"
	 viewBox="0 0 150 150" style="enable-background:new 0 0 150 150;" xml:space="preserve">
<style type="text/css">
	.st0{fill:none;stroke:#231F20;stroke-miterlimit:10;}
</style>
<g>
	<path class="st0" d="M22.1,82.1c0,0,19.9,23.1,54.4,23.1s53.2-23.1,53.2-23.1l-6-22.8c0,0-14.6-13.9-47.8-12.3S29.4,59,29.4,59
		L22.1,82.1z"/>
	<path class="st0" d="M29.4,59c0,0,9.2,22.8,47.2,24.1c38,1.3,47.2-23.7,47.2-23.7"/>
	<path class="st0" d="M40.6,72c0,0,8.1-8.3,35.3-8c27.2,0.3,38,8,38,8"/>
	<path class="st0" d="M65.2,104.3c0,0-1.9-18.1,11.4-21.3"/>
	<circle class="st0" cx="76.5" cy="95.1" r="2.8"/>
</g>
</svg>
