<?xml version="1.0" encoding="utf-8"?>
<!-- Generator: Adobe Illustrator 21.0.0, SVG Export Plug-In . SVG Version: 6.00 Build 0)  -->
<svg version="1.1" id="Layer_1" xmlns="http://www.w3.org/2000/svg" xmlns:xlink="http://www.w3.org/1999/xlink" x="0px" y="0px"
	 viewBox="0 0 150 150" style="enable-background:new 0 0 150 150;" xml:space="preserve">
<style type="text/css">
	.st0{fill:#231F20;}
	.st1{fill:none;stroke:#231F20;stroke-miterlimit:10;}
	.st2{opacity:0.74;fill:none;stroke:#231F20;stroke-miterlimit:10;}
	.st3{fill:#FFFFFF;stroke:#231F20;stroke-miterlimit:10;}
</style>
<path class="st0" d="M118.8,76c0,0-9.9-30.3-12.2-31.7c-2.3-1.4-5.9,23.4-4.7,31.7l4.8,7.7L118.8,76z"/>
<path class="st0" d="M32.9,77c0,0,10.2-32.5,12.5-34c2.3-1.4,5.8,24.5,4.6,32.9l-5.2,7.7L32.9,77z"/>
<path class="st1" d="M46,120c0,0,11.7,6,28.6,5.2c16.9-0.7,29.8-5.2,29.8-5.2s-9.1-37.4,1.4-75.5c0,0-25.7-23.1-59.8-1
	C46,43.5,55.6,86.4,46,120z"/>
<line class="st2" x1="72.7" y1="38.3" x2="72.7" y2="125.3"/>
<path class="st3" d="M68.6,48.8l6.1-9.8h1.8l6.4,9.8c0,0,1.7-0.5,4.4-9.8c0,0,1.1-4.9-1.1-9.3c0,0-1-2.7-11-2.7s-10.3,3.3-10.3,3.3
	l-1.7,4.5C63.3,34.8,62.7,38.6,68.6,48.8z"/>
<path class="st1" d="M64.9,30.2c0,0-0.4,1.8,9.8,8.7h1.8c0,0,10.8-6.4,9.7-9.3"/>
<path class="st1" d="M66.8,32.9c0,0,1.4-1.3,8.6-1.3c7.3,0.1,9.2,1.3,9.2,1.3"/>
<line class="st1" x1="72.5" y1="42.5" x2="78.8" y2="42.5"/>
</svg>
